<?xml version="1.0" encoding="utf-8"?>
<!-- Generator: Adobe Illustrator 17.0.0, SVG Export Plug-In . SVG Version: 6.00 Build 0)  -->
<!DOCTYPE svg PUBLIC "-//W3C//DTD SVG 1.1//EN" "http://www.w3.org/Graphics/SVG/1.1/DTD/svg11.dtd">
<svg version="1.1" id="Layer_1" xmlns="http://www.w3.org/2000/svg" xmlns:xlink="http://www.w3.org/1999/xlink" x="0px" y="0px"
	 width="256px" height="256px" viewBox="0 0 256 256" enable-background="new 0 0 256 256" xml:space="preserve">
<path fill="#3B5998" d="M227,210.837c0,8.926-7.236,16.163-16.163,16.163H45.164C36.236,227,29,219.763,29,210.837V45.164
	C29,36.236,36.236,29,45.164,29h165.674C219.764,29,227,36.236,227,45.164V210.837z"/>
<path fill="#FFFFFF" d="M213.495,101.65h-34.649V87.213c0-4.089,0.54-7.039,1.621-8.844c1.085-1.805,3.432-2.707,7.04-2.707h25.988
	V47.147h-31.763c-13.239,0-22.804,3.129-28.695,9.384c-5.901,6.26-8.846,15.521-8.846,27.793v17.326h-16.603V128h16.603v80.852
	h34.654V128h29.956C208.801,128,213.495,101.65,213.495,101.65z"/>
</svg>
