<?xml version="1.0" encoding="utf-8"?>
<!-- Generator: Adobe Illustrator 17.0.0, SVG Export Plug-In . SVG Version: 6.00 Build 0)  -->
<!DOCTYPE svg PUBLIC "-//W3C//DTD SVG 1.1//EN" "http://www.w3.org/Graphics/SVG/1.1/DTD/svg11.dtd">
<svg version="1.1" id="Layer_1" xmlns="http://www.w3.org/2000/svg" xmlns:xlink="http://www.w3.org/1999/xlink" x="0px" y="0px"
	 width="256px" height="256px" viewBox="0 0 256 256" enable-background="new 0 0 256 256" xml:space="preserve">
<path fill="#D13F2D" d="M227,210.864c0,8.965-7.25,16.136-16.136,16.136H45.136C36.25,227,29,219.75,29,210.864V45.136
	C29,36.25,36.25,29,45.136,29h165.65c8.965,0,16.136,7.25,16.136,16.136v165.728H227z"/>
<polygon id="Plus" fill="#FFFFFF" points="218,86 191,86 191,56 183,56 183,86 154,86 154,93 183,93 183,120 191,120 191,93 218,93 
	"/>
<path id="g" fill="#FFFFFF" d="M122.2,138.8c-4-2.8-11.7-9.8-11.7-13.8c0-4.8,1.4-7.1,8.5-12.7c7.3-5.7,12.5-13,12.5-22.4
	c0-11.2-5-22.9-14.3-24.9h14.1l9.9-9H96.8c-19.9,0-38.7,15.2-38.7,32.7c0,17.9,13.6,32.3,33.8,32.3c1.4,0,2.8,0,4.1-0.1
	c-1.3,2.5-2.3,5.4-2.3,8.3c0,5,2.7,9,6,12.3c-2.6,0-5,0.1-7.7,0.1c-24.7,0-43.7,15.7-43.7,32c0,16,20.8,26.1,45.5,26.1
	c28.1,0,43.7-16,43.7-32C137.7,154.8,133.9,147.1,122.2,138.8L122.2,138.8z M98.5,116.5c-11.4-0.3-22.3-12.8-24.3-27.8
	s5.7-26.5,17.1-26.2s22.3,12.4,24.3,27.4C117.6,105,109.9,116.9,98.5,116.5z M94,192.6c-17.1,0-29.4-10.8-29.4-23.8
	c0-12.7,15.3-23.3,32.3-23.1c4,0,7.7,0.7,11.1,1.8c9.3,6.4,15.9,10.1,17.8,17.4c0.4,1.5,0.5,3,0.5,4.6
	C126.3,182.5,118,192.6,94,192.6L94,192.6z"/>
</svg>
