<?xml version="1.0" encoding="utf-8"?>
<!-- Generator: Adobe Illustrator 17.0.0, SVG Export Plug-In . SVG Version: 6.00 Build 0)  -->
<!DOCTYPE svg PUBLIC "-//W3C//DTD SVG 1.1//EN" "http://www.w3.org/Graphics/SVG/1.1/DTD/svg11.dtd">
<svg version="1.1" id="Layer_1" xmlns="http://www.w3.org/2000/svg" xmlns:xlink="http://www.w3.org/1999/xlink" x="0px" y="0px"
	 width="256px" height="256px" viewBox="0 0 256 256" enable-background="new 0 0 256 256" xml:space="preserve">
<path fill="#CB2027" d="M227,210.864c0,8.965-7.25,16.136-16.136,16.136H45.136C36.25,227,29,219.75,29,210.864V45.136
	C29,36.25,36.25,29,45.136,29h165.65c8.965,0,16.136,7.25,16.136,16.136v165.728H227z"/>
<path fill="#FFFFFF" d="M180.6,144.2c10.2-15.7,13.9-33.4,11.3-53.2c-2.3-16-10.5-28.1-24.4-36.4s-29.9-11.4-47.9-9.4
	c-14.6,1.8-27.5,8-38.8,18.6s-17.1,23.6-17.4,39c-0.9,21.8,6.8,34.6,23.1,38.4c2-3.2,3.1-6.2,3.1-8.9c0-2.8-0.4-4.9-1.3-6.3
	c-0.9-1.5-2-3.3-3.3-5.7c-1.3-2.3-2.3-4.6-2.8-7c-1.5-9.9,0.4-19.2,5.4-27.9c5.1-8.7,11.8-15.3,20-19.6c8.3-4.4,17.4-6.2,27.2-5.4
	c9.9,0.7,18.3,4.6,25.3,11.5c4.6,4.9,7.5,12.1,8.7,21.6c1.2,9.4,0.6,18.5-1.7,27c-2.3,8.6-6.5,15.8-12.4,21.6
	c-6,5.8-12.7,8-20.3,6.5c-5.8-1.2-9.3-3.9-10.5-8.3c-1.2-4.4-0.9-9.4,0.9-15c1.7-5.7,3.6-11.3,5.4-17c1.9-5.7,2.6-10.9,2.2-15.7
	c-0.4-4.8-3-8.1-7.6-9.8c-6.4-2.6-11.9-1.5-16.6,3.3c-4.6,4.8-7.3,10.7-7.8,17.6c-0.6,7,0.4,13.4,3.1,19.2
	c-0.9,4.9-2.5,11.8-4.8,20.7s-4.1,15.8-5.2,20.9c-1.2,5.1-2.3,12.5-3.5,22.2s-0.9,17.9,0.9,24.6c7.3-5.2,12.6-12.4,16.1-21.6
	c3.5-9.2,6.7-20.7,9.6-34.6c0.6,0.3,2.6,1.7,6.1,4.1c3.5,2.5,6.2,4.1,8.3,4.8c2,0.7,4.6,1.2,7.8,1.5
	C156.5,167,170.4,159.9,180.6,144.2L180.6,144.2z"/>
</svg>
