<?xml version="1.0" encoding="utf-8"?>
<!-- Generator: Adobe Illustrator 17.0.0, SVG Export Plug-In . SVG Version: 6.00 Build 0)  -->
<!DOCTYPE svg PUBLIC "-//W3C//DTD SVG 1.1//EN" "http://www.w3.org/Graphics/SVG/1.1/DTD/svg11.dtd">
<svg version="1.1" id="Layer_1" xmlns="http://www.w3.org/2000/svg" xmlns:xlink="http://www.w3.org/1999/xlink" x="0px" y="0px"
	 width="256px" height="256px" viewBox="0 0 256 256" enable-background="new 0 0 256 256" xml:space="preserve">
<path fill="#44CCF6" d="M226.92,210.86V45.14c0-8.89-7.17-16.14-16.13-16.14H45.14C36.25,29,29,36.25,29,45.14v165.72
	c0,8.89,7.25,16.14,16.14,16.14h165.72c8.89,0,16.14-7.17,16.14-16.14H226.92z M193.7,93.7v4.4c0,11.6-2.1,23.1-6.4,34.6
	c-4.3,11.6-10.3,22.1-18.1,31.6s-17.9,17.2-30.4,23.1c-12.5,5.9-26.2,8.8-41.2,8.8c-18.8,0-36.1-5.2-51.9-15.7
	c2.6,0.3,5.3,0.4,8,0.4c15.8,0,29.9-4.9,42.2-14.5c-7.5-0.2-14.1-2.6-19.9-7c-5.8-4.4-9.8-10.1-11.9-17.1c2.1,0.5,4.3,0.8,6.4,0.8
	c2.9,0,5.8-0.4,8.8-1.2c-7.8-1.6-14.3-5.6-19.5-11.9S52,116.4,52,108.1v-0.4c4.8,2.7,10.1,4,15.7,4c-10.2-6.6-15.3-16.2-15.3-28.5
	c0-6.2,1.6-11.9,4.8-17.3c8.3,10.7,18.5,19.2,30.6,25.5c12.1,6.3,25.1,9.9,39,10.7c-0.5-2.6-0.8-5.3-0.8-8c0-9.4,3.3-17.5,9.9-24.3
	c6.5-6.9,14.5-10.3,23.9-10.3c9.6,0,17.8,3.8,24.5,11.3c7.8-1.6,15-4.4,21.7-8.4c-2.7,8-7.7,14.3-14.9,18.9
	c6.7-0.8,13.1-2.5,19.3-5.2C205.9,83.1,200.2,89,193.7,93.7z"/>
</svg>
